<svg width="386" height="241" viewBox="0 0 386 241" fill="none" xmlns="http://www.w3.org/2000/svg">
<path d="M103.5 11C144.642 11 179.509 37.8597 191.525 75H335C357.091 75 375 92.9086 375 115V126C375 148.091 357.091 166 335 166H191.525C179.509 203.14 144.642 230 103.5 230C52.4137 230 11 188.586 11 137.5V103.5C11 52.4137 52.4137 11 103.5 11Z" fill="black"/>
<path d="M191.525 75L181.06 78.3861L183.523 86H191.525V75ZM335 75V64V64V75ZM375 115H386H375ZM191.525 166V155H183.523L181.06 162.614L191.525 166ZM103.5 11V22C139.732 22 170.469 45.6512 181.06 78.3861L191.525 75L201.991 71.6139C188.55 30.0683 149.551 0 103.5 0V11ZM191.525 75V86H335V75V64H191.525V75ZM335 75V86C351.016 86 364 98.9837 364 115H375H386C386 86.8335 363.167 64 335 64V75ZM375 115H364V126H375H386V115H375ZM375 126H364C364 142.016 351.016 155 335 155V166V177C363.167 177 386 154.167 386 126H375ZM335 166V155H191.525V166V177H335V166ZM191.525 166L181.06 162.614C170.469 195.349 139.732 219 103.5 219V230V241C149.551 241 188.55 210.932 201.991 169.386L191.525 166ZM103.5 230V219C58.4888 219 22 182.511 22 137.5H11H0C0 194.661 46.3385 241 103.5 241V230ZM11 137.5H22V103.5H11H0V137.5H11ZM11 103.5H22C22 58.4888 58.4888 22 103.5 22V11V0C46.3385 0 0 46.3385 0 103.5H11Z" fill="#FF0000"/>
<rect x="3.5" y="57.5" width="92" height="126" rx="39.5" fill="#FFF372" stroke="#FF0000"/>
</svg>
