<svg width="647" height="842" viewBox="0 0 647 842" fill="none" xmlns="http://www.w3.org/2000/svg">
<g filter="url(#filter0_g_147_504)">
<mask id="path-1-inside-1_147_504" fill="white">
<path d="M323.5 4C499.955 4 643 147.045 643 323.5C643 379.745 639.845 429.091 633.5 472.236V837.522L620.124 820.661L525.538 701.426L451 827L400.312 741.605L327.5 827L251.276 737.605C251.244 737.601 251.213 737.597 251.181 737.593L195.5 827L126.869 716.802L32.2803 820.066L19.25 834.291V504.197C9.05729 453.856 4 394.063 4 323.5C4 147.045 147.045 4 323.5 4Z"/>
</mask>
<path d="M323.5 4C499.955 4 643 147.045 643 323.5C643 379.745 639.845 429.091 633.5 472.236V837.522L620.124 820.661L525.538 701.426L451 827L400.312 741.605L327.5 827L251.276 737.605C251.244 737.601 251.213 737.597 251.181 737.593L195.5 827L126.869 716.802L32.2803 820.066L19.25 834.291V504.197C9.05729 453.856 4 394.063 4 323.5C4 147.045 147.045 4 323.5 4Z" fill="#E0E0E0" fill-opacity="0.5"/>
<path d="M633.5 472.236L610.745 468.89L610.5 470.554V472.236H633.5ZM633.5 837.522L615.481 851.817L656.5 903.524V837.522H633.5ZM620.124 820.661L602.105 834.955L602.105 834.955L620.124 820.661ZM525.538 701.426L543.557 687.132L522.804 660.971L505.76 689.686L525.538 701.426ZM451 827L431.222 838.74L451 872.06L470.778 838.74L451 827ZM400.312 741.605L420.09 729.866L403.675 702.212L382.81 726.683L400.312 741.605ZM327.5 827L309.998 841.923L327.5 862.449L345.002 841.923L327.5 827ZM251.276 737.605L268.778 722.682L263.056 715.971L254.313 714.807L251.276 737.605ZM251.181 737.593L254.223 714.795L239.506 712.831L231.657 725.434L251.181 737.593ZM195.5 827L175.977 839.159L195.5 870.507L215.023 839.159L195.5 827ZM126.869 716.802L146.392 704.643L130.375 678.923L109.909 701.266L126.869 716.802ZM32.2803 820.066L49.2401 835.602L49.2406 835.602L32.2803 820.066ZM19.25 834.291H-3.75V893.449L36.2099 849.827L19.25 834.291ZM19.25 504.197H42.25V501.892L41.7926 499.633L19.25 504.197ZM323.5 4V27C487.252 27 620 159.748 620 323.5H643H666C666 134.342 512.658 -19 323.5 -19V4ZM643 323.5H620C620 378.926 616.889 427.115 610.745 468.89L633.5 472.236L656.255 475.583C662.802 431.067 666 380.564 666 323.5H643ZM633.5 472.236H610.5V837.522H633.5H656.5V472.236H633.5ZM633.5 837.522L651.519 823.228L638.143 806.367L620.124 820.661L602.105 834.955L615.481 851.817L633.5 837.522ZM620.124 820.661L638.143 806.367L543.557 687.132L525.538 701.426L507.519 715.72L602.105 834.955L620.124 820.661ZM525.538 701.426L505.76 689.686L431.222 815.26L451 827L470.778 838.74L545.316 713.166L525.538 701.426ZM451 827L470.778 815.26L420.09 729.866L400.312 741.605L380.533 753.345L431.222 838.74L451 827ZM400.312 741.605L382.81 726.683L309.998 812.077L327.5 827L345.002 841.923L417.813 756.528L400.312 741.605ZM327.5 827L345.002 812.077L268.778 722.682L251.276 737.605L233.775 752.528L309.998 841.923L327.5 827ZM251.276 737.605L254.313 714.807C254.12 714.781 254.356 714.813 254.223 714.795L251.181 737.593L248.139 760.391C248.169 760.395 248.196 760.398 248.212 760.4C248.23 760.403 248.235 760.404 248.239 760.404L251.276 737.605ZM251.181 737.593L231.657 725.434L175.977 814.841L195.5 827L215.023 839.159L270.704 749.752L251.181 737.593ZM195.5 827L215.023 814.841L146.392 704.643L126.869 716.802L107.346 728.961L175.977 839.159L195.5 827ZM126.869 716.802L109.909 701.266L15.32 804.531L32.2803 820.066L49.2406 835.602L143.829 732.337L126.869 716.802ZM32.2803 820.066L15.3204 804.531L2.29014 818.755L19.25 834.291L36.2099 849.827L49.2401 835.602L32.2803 820.066ZM19.25 834.291H42.25V504.197H19.25H-3.75V834.291H19.25ZM19.25 504.197L41.7926 499.633C31.9923 451.23 27 393.05 27 323.5H4H-19C-19 395.076 -13.8777 456.482 -3.29258 508.762L19.25 504.197ZM4 323.5H27C27 159.748 159.748 27 323.5 27V4V-19C134.342 -19 -19 134.342 -19 323.5H4Z" fill="white" mask="url(#path-1-inside-1_147_504)"/>
</g>
<path d="M266 269.074C266 311.64 241.267 349.609 208.44 353.809C166.17 359.218 123 346.796 123 304.23C123 261.663 157.106 192 195.849 192C234.592 192 266 226.507 266 269.074Z" fill="black"/>
<path d="M363 269.074C363 311.64 387.733 349.609 420.56 353.809C462.83 359.218 506 346.796 506 304.23C506 261.663 471.894 192 433.151 192C394.408 192 363 226.507 363 269.074Z" fill="black"/>
<ellipse cx="320" cy="436" rx="43" ry="54" fill="black"/>
<defs>
<filter id="filter0_g_147_504" x="0" y="0" width="647" height="841.522" filterUnits="userSpaceOnUse" color-interpolation-filters="sRGB">
<feFlood flood-opacity="0" result="BackgroundImageFix"/>
<feBlend mode="normal" in="SourceGraphic" in2="BackgroundImageFix" result="shape"/>
<feTurbulence type="fractalNoise" baseFrequency="0.018484288826584816 0.018484288826584816" numOctaves="3" seed="159" />
<feDisplacementMap in="shape" scale="8" xChannelSelector="R" yChannelSelector="G" result="displacedImage" width="100%" height="100%" />
<feMerge result="effect1_texture_147_504">
<feMergeNode in="displacedImage"/>
</feMerge>
</filter>
</defs>
</svg>
