<svg width="297" height="286" viewBox="0 0 297 286" fill="none" xmlns="http://www.w3.org/2000/svg">
<g filter="url(#filter0_g_123_39)">
<path d="M234.08 35.3551C284.69 73.541 282.066 118.803 243.881 169.413C221.035 199.692 132.187 253.705 132.187 253.705C132.187 253.705 103.433 207.248 83.1019 191.908C32.4921 153.722 3.27463 103.959 41.4605 53.3492C62.4245 25.5646 138.036 18.1248 144.255 76.1487C146.794 12.8284 211.255 18.1332 234.08 35.3551Z" fill="#C93636"/>
<path d="M33.4777 47.3263C40.2274 38.3806 50.7495 31.7652 62.064 27.6363C73.4898 23.4667 86.5611 21.5158 99.2446 22.6078C111.923 23.6993 124.744 27.8913 134.984 36.572C137.564 38.7592 139.934 41.1944 142.067 43.8749C143.906 40.3667 146.043 37.1592 148.458 34.2511C156.867 24.1228 167.96 18.416 179.319 15.8032C201.407 10.7227 226.269 16.9343 240.103 27.3727C267.043 47.6995 281.22 71.0822 282.271 97.3257C283.3 123.057 271.587 149.296 251.864 175.436C245.371 184.041 234.72 193.731 223.074 203.137C211.261 212.677 197.787 222.426 185.144 231.146C172.483 239.878 160.557 247.644 151.802 253.225C147.421 256.017 143.827 258.266 141.324 259.821C140.072 260.598 139.092 261.202 138.423 261.613C138.088 261.818 137.831 261.976 137.656 262.083C137.568 262.136 137.501 262.177 137.455 262.205C137.432 262.219 137.414 262.23 137.402 262.237C137.396 262.241 137.392 262.244 137.388 262.246C137.386 262.247 137.384 262.249 137.384 262.249C137.382 262.249 137.323 262.154 132.187 253.705L137.382 262.25L128.905 267.403L123.685 258.968L123.684 258.969C123.684 258.969 123.684 258.967 123.682 258.965C123.68 258.961 123.676 258.955 123.67 258.946C123.658 258.927 123.64 258.897 123.615 258.857C123.565 258.776 123.488 258.653 123.386 258.489C123.181 258.162 122.873 257.673 122.471 257.041C121.668 255.777 120.491 253.943 119.014 251.691C116.056 247.18 111.91 241.017 107.15 234.397C97.3551 220.775 85.8755 206.529 77.0782 199.891C51.0675 180.265 29.4312 156.876 19.6232 130.809C9.5361 104.001 12.3605 75.3142 33.4777 47.3263Z" stroke="white" stroke-width="20"/>
</g>
<defs>
<filter id="filter0_g_123_39" x="0" y="0" width="296.333" height="285.102" filterUnits="userSpaceOnUse" color-interpolation-filters="sRGB">
<feFlood flood-opacity="0" result="BackgroundImageFix"/>
<feBlend mode="normal" in="SourceGraphic" in2="BackgroundImageFix" result="shape"/>
<feTurbulence type="fractalNoise" baseFrequency="0.042918454855680466 0.042918454855680466" numOctaves="3" seed="5140" />
<feDisplacementMap in="shape" scale="8" xChannelSelector="R" yChannelSelector="G" result="displacedImage" width="100%" height="100%" />
<feMerge result="effect1_texture_123_39">
<feMergeNode in="displacedImage"/>
</feMerge>
</filter>
</defs>
</svg>
