<svg width="979" height="1004" viewBox="0 0 979 1004" fill="none" xmlns="http://www.w3.org/2000/svg">
<g filter="url(#filter0_g_125_420)">
<path d="M489.099 46.0752L566.132 164.075L686.733 91.1839L704.939 230.921L845.224 217.576L800.997 351.373L933.179 400.217L835.279 501.575L933.179 602.933L800.997 651.777L845.224 785.575L704.939 772.23L686.733 911.967L566.132 839.076L489.099 957.075L412.067 839.076L291.465 911.967L273.26 772.23L132.975 785.575L177.202 651.777L45.0197 602.933L142.919 501.575L45.0197 400.217L177.202 351.373L132.975 217.576L273.26 230.921L291.465 91.1839L412.067 164.075L489.099 46.0752Z" fill="#EFB000"/>
<path d="M498.729 39.7891L569.689 148.486L680.785 81.3418L695.861 72.2295L698.137 89.6982L714.907 218.42L844.135 206.127L861.672 204.459L856.142 221.185L815.401 344.436L937.165 389.43L953.689 395.536L941.451 408.206L851.266 501.575L941.451 594.944L953.689 607.614L937.165 613.721L815.401 658.714L856.142 781.966L861.672 798.691L844.135 797.023L714.907 784.729L698.137 913.452L695.861 930.921L680.785 921.809L569.689 854.663L498.729 963.361L489.099 978.112L479.469 963.361L408.509 854.663L297.414 921.809L282.338 930.921L280.061 913.452L263.291 784.729L134.064 797.023L116.527 798.691L122.056 781.966L162.797 658.714L41.0339 613.721L24.5095 607.614L36.7478 594.944L126.931 501.575L36.7478 408.206L24.5095 395.536L41.0339 389.43L162.797 344.436L122.056 221.185L116.527 204.459L134.064 206.127L263.291 218.42L280.061 89.6982L282.338 72.2295L297.414 81.3418L408.509 148.486L479.469 39.7891L489.099 25.0381L498.729 39.7891Z" stroke="white" stroke-width="23"/>
</g>
<g filter="url(#filter1_g_125_420)">
<mask id="path-3-inside-1_125_420" fill="white">
<path d="M741.842 152.062C752.888 147.945 764.442 156.782 763.363 168.52L747.898 336.741C783.746 388.38 804.756 451.097 804.756 518.722C804.756 695.177 661.711 838.222 485.256 838.222C308.801 838.222 165.756 695.177 165.756 518.722C165.756 450.717 187.004 387.674 223.222 335.87L205.958 171.894C204.705 159.987 216.494 150.972 227.656 155.301L383.535 215.757C415.487 205.034 449.693 199.222 485.256 199.222C517.637 199.222 548.894 204.04 578.347 212.997L741.842 152.062Z"/>
</mask>
<path d="M741.842 152.062C752.888 147.945 764.442 156.782 763.363 168.52L747.898 336.741C783.746 388.38 804.756 451.097 804.756 518.722C804.756 695.177 661.711 838.222 485.256 838.222C308.801 838.222 165.756 695.177 165.756 518.722C165.756 450.717 187.004 387.674 223.222 335.87L205.958 171.894C204.705 159.987 216.494 150.972 227.656 155.301L383.535 215.757C415.487 205.034 449.693 199.222 485.256 199.222C517.637 199.222 548.894 204.04 578.347 212.997L741.842 152.062Z" fill="#9E7B3F"/>
<path d="M741.842 152.062L733.81 130.51L733.81 130.51L741.842 152.062ZM763.363 168.52L786.266 170.626V170.625L763.363 168.52ZM747.898 336.741L724.994 334.635L724.227 342.976L729.004 349.857L747.898 336.741ZM804.756 518.722H827.756V518.722L804.756 518.722ZM485.256 838.222L485.256 861.222H485.256V838.222ZM165.756 518.722L142.756 518.722V518.722H165.756ZM223.222 335.87L242.072 349.048L246.995 342.006L246.096 333.461L223.222 335.87ZM205.958 171.894L183.085 174.302L183.085 174.302L205.958 171.894ZM227.656 155.301L219.34 176.745L219.34 176.745L227.656 155.301ZM383.535 215.757L375.219 237.201L382.971 240.208L390.853 237.562L383.535 215.757ZM485.256 199.222V176.222H485.256L485.256 199.222ZM578.347 212.997L571.655 235.002L579.094 237.264L586.379 234.548L578.347 212.997ZM741.842 152.062L749.874 173.614C745.04 175.415 739.987 171.549 740.459 166.415L763.363 168.52L786.266 170.625C788.896 142.015 760.735 120.475 733.81 130.51L741.842 152.062ZM763.363 168.52L740.459 166.414L724.994 334.635L747.898 336.741L770.801 338.846L786.266 170.626L763.363 168.52ZM747.898 336.741L729.004 349.857C762.265 397.769 781.756 455.935 781.756 518.722L804.756 518.722L827.756 518.722C827.756 446.26 805.227 378.991 766.791 323.625L747.898 336.741ZM804.756 518.722H781.756C781.756 682.475 649.009 815.222 485.256 815.222V838.222V861.222C674.414 861.222 827.756 707.88 827.756 518.722H804.756ZM485.256 838.222L485.256 815.222C321.504 815.222 188.756 682.474 188.756 518.722H165.756H142.756C142.756 707.88 296.099 861.222 485.256 861.222L485.256 838.222ZM165.756 518.722L188.756 518.722C188.756 455.582 208.468 397.115 242.072 349.048L223.222 335.87L204.372 322.691C165.541 378.234 142.756 445.851 142.756 518.722L165.756 518.722ZM223.222 335.87L246.096 333.461L228.832 169.486L205.958 171.894L183.085 174.302L200.348 338.278L223.222 335.87ZM205.958 171.894L228.832 169.486C229.38 174.696 224.223 178.639 219.34 176.745L227.656 155.301L235.973 133.858C208.765 123.305 180.029 145.278 183.085 174.302L205.958 171.894ZM227.656 155.301L219.34 176.745L375.219 237.201L383.535 215.757L391.852 194.314L235.973 133.858L227.656 155.301ZM383.535 215.757L390.853 237.562C420.477 227.62 452.213 222.222 485.256 222.222L485.256 199.222L485.256 176.222C447.173 176.222 410.497 182.448 376.217 193.953L383.535 215.757ZM485.256 199.222V222.222C515.345 222.222 544.347 226.697 571.655 235.002L578.347 212.997L585.039 190.991C553.44 181.382 519.93 176.222 485.256 176.222V199.222ZM578.347 212.997L586.379 234.548L749.874 173.614L741.842 152.062L733.81 130.51L570.315 191.445L578.347 212.997Z" fill="white" mask="url(#path-3-inside-1_125_420)"/>
</g>
<ellipse cx="487.756" cy="564.732" rx="42" ry="24.5" fill="black"/>
<defs>
<filter id="filter0_g_125_420" x="0" y="0" width="978.199" height="1003.15" filterUnits="userSpaceOnUse" color-interpolation-filters="sRGB">
<feFlood flood-opacity="0" result="BackgroundImageFix"/>
<feBlend mode="normal" in="SourceGraphic" in2="BackgroundImageFix" result="shape"/>
<feTurbulence type="fractalNoise" baseFrequency="0.024330900982022285 0.024330900982022285" numOctaves="3" seed="7527" />
<feDisplacementMap in="shape" scale="8" xChannelSelector="R" yChannelSelector="G" result="displacedImage" width="100%" height="100%" />
<feMerge result="effect1_texture_125_420">
<feMergeNode in="displacedImage"/>
</feMerge>
</filter>
<filter id="filter1_g_125_420" x="161.756" y="147.036" width="647" height="695.186" filterUnits="userSpaceOnUse" color-interpolation-filters="sRGB">
<feFlood flood-opacity="0" result="BackgroundImageFix"/>
<feBlend mode="normal" in="SourceGraphic" in2="BackgroundImageFix" result="shape"/>
<feTurbulence type="fractalNoise" baseFrequency="0.018484288826584816 0.018484288826584816" numOctaves="3" seed="159" />
<feDisplacementMap in="shape" scale="8" xChannelSelector="R" yChannelSelector="G" result="displacedImage" width="100%" height="100%" />
<feMerge result="effect1_texture_125_420">
<feMergeNode in="displacedImage"/>
</feMerge>
</filter>
</defs>
</svg>
