<svg width="647" height="778" viewBox="0 0 647 778" fill="none" xmlns="http://www.w3.org/2000/svg">
<g filter="url(#filter0_g_126_421)">
<mask id="path-1-inside-1_126_421" fill="white">
<path d="M323.5 4C499.955 4 643 147.045 643 323.5C643 646.5 323.5 773.5 323.5 773.5C323.5 773.5 4 643.5 4 323.5C4 147.045 147.045 4 323.5 4Z"/>
</mask>
<path d="M323.5 4C499.955 4 643 147.045 643 323.5C643 646.5 323.5 773.5 323.5 773.5C323.5 773.5 4 643.5 4 323.5C4 147.045 147.045 4 323.5 4Z" fill="#7F6614"/>
<path d="M323.5 773.5L314.832 794.804L323.4 798.29L331.996 794.873L323.5 773.5ZM323.5 4V27C487.252 27 620 159.748 620 323.5H643H666C666 134.342 512.658 -19 323.5 -19V4ZM643 323.5H620C620 476.521 544.569 583.266 467.836 652.555C429.438 687.227 390.965 712.252 362.093 728.593C347.679 736.751 335.722 742.709 327.45 746.594C323.316 748.536 320.108 749.957 317.981 750.875C316.918 751.333 316.125 751.665 315.622 751.873C315.371 751.978 315.192 752.05 315.088 752.093C315.036 752.114 315.003 752.127 314.989 752.133C314.982 752.135 314.98 752.136 314.982 752.135C314.983 752.135 314.989 752.133 314.99 752.132C314.996 752.13 315.004 752.127 323.5 773.5C331.996 794.873 332.006 794.869 332.018 794.865C332.023 794.862 332.036 794.857 332.047 794.853C332.069 794.844 332.096 794.833 332.127 794.821C332.191 794.795 332.273 794.762 332.375 794.721C332.578 794.638 332.858 794.524 333.211 794.378C333.917 794.086 334.918 793.666 336.195 793.115C338.748 792.014 342.405 790.392 347.007 788.23C356.208 783.908 369.211 777.421 384.751 768.626C415.785 751.061 457.187 724.148 498.664 686.695C581.681 611.734 666 493.479 666 323.5H643ZM323.5 773.5C332.168 752.196 332.176 752.199 332.183 752.202C332.183 752.202 332.188 752.204 332.19 752.205C332.192 752.206 332.189 752.205 332.182 752.202C332.167 752.196 332.134 752.182 332.081 752.16C331.977 752.117 331.797 752.042 331.545 751.935C331.04 751.721 330.245 751.381 329.18 750.912C327.048 749.973 323.836 748.521 319.698 746.541C311.417 742.58 299.449 736.515 285.025 728.238C256.131 711.659 217.632 686.345 179.208 651.469C102.387 581.742 27 474.978 27 323.5H4H-19C-19 492.022 65.3625 610.258 148.292 685.531C189.743 723.155 231.119 750.341 262.131 768.137C277.66 777.047 290.653 783.639 299.845 788.037C304.443 790.237 308.095 791.89 310.644 793.012C311.919 793.573 312.918 794.002 313.622 794.3C313.975 794.449 314.253 794.565 314.455 794.649C314.557 794.691 314.639 794.725 314.702 794.751C314.733 794.764 314.76 794.775 314.781 794.783C314.792 794.788 314.805 794.793 314.81 794.795C314.822 794.8 314.832 794.804 323.5 773.5ZM4 323.5H27C27 159.748 159.748 27 323.5 27V4V-19C134.342 -19 -19 134.342 -19 323.5H4Z" fill="white" mask="url(#path-1-inside-1_126_421)"/>
</g>
<path d="M239.5 541L192.302 470.5L286.698 470.5L239.5 541Z" fill="#F4E8C9"/>
<path d="M300.5 541L253.302 470.5L347.698 470.5L300.5 541Z" fill="#F4E8C9"/>
<path d="M358.5 541L311.302 470.5L405.698 470.5L358.5 541Z" fill="#F4E8C9"/>
<path d="M409.5 541L362.302 470.5L456.698 470.5L409.5 541Z" fill="#F4E8C9"/>
<path d="M262.654 602.394L228.313 551.098L296.995 551.098L262.654 602.394Z" fill="#F4E8C9"/>
<path d="M307.038 602.394L272.696 551.098L341.379 551.098L307.038 602.394Z" fill="#F4E8C9"/>
<path d="M349.238 602.394L314.897 551.098L383.58 551.098L349.238 602.394Z" fill="#F4E8C9"/>
<path d="M386.346 602.394L352.004 551.098L420.687 551.098L386.346 602.394Z" fill="#F4E8C9"/>
<defs>
<filter id="filter0_g_126_421" x="0" y="0" width="647" height="777.5" filterUnits="userSpaceOnUse" color-interpolation-filters="sRGB">
<feFlood flood-opacity="0" result="BackgroundImageFix"/>
<feBlend mode="normal" in="SourceGraphic" in2="BackgroundImageFix" result="shape"/>
<feTurbulence type="fractalNoise" baseFrequency="0.018484288826584816 0.018484288826584816" numOctaves="3" seed="159" />
<feDisplacementMap in="shape" scale="8" xChannelSelector="R" yChannelSelector="G" result="displacedImage" width="100%" height="100%" />
<feMerge result="effect1_texture_126_421">
<feMergeNode in="displacedImage"/>
</feMerge>
</filter>
</defs>
</svg>
