<svg width="552" height="1118" viewBox="0 0 552 1118" fill="none" xmlns="http://www.w3.org/2000/svg">
<g filter="url(#filter0_g_125_88)">
<mask id="path-1-inside-1_125_88" fill="white">
<path d="M275.5 126C401.697 126 504 347.171 504 620C504 892.829 401.697 1114 275.5 1114C149.303 1114 47 892.828 47 620C47 347.172 149.303 126 275.5 126Z"/>
</mask>
<path d="M275.5 126C401.697 126 504 347.171 504 620C504 892.829 401.697 1114 275.5 1114C149.303 1114 47 892.828 47 620C47 347.172 149.303 126 275.5 126Z" fill="#EED00B"/>
<path d="M275.5 126V103H275.5L275.5 126ZM504 620H527V620H504ZM275.5 1114L275.5 1137H275.5V1114ZM47 620H24V620H47ZM275.5 126V149C324.246 149 375.645 192.67 416.199 280.345C455.857 366.083 481 486.146 481 620H504H527C527 481.026 500.991 354.088 457.949 261.034C415.802 169.915 352.951 103 275.5 103V126ZM504 620H481C481 753.854 455.857 873.917 416.199 959.655C375.645 1047.33 324.246 1091 275.5 1091V1114V1137C352.951 1137 415.802 1070.08 457.949 978.966C500.991 885.912 527 758.974 527 620H504ZM275.5 1114L275.5 1091C226.754 1091 175.355 1047.33 134.801 959.655C95.143 873.917 70 753.854 70 620H47H24C24 758.974 50.0086 885.911 93.0511 978.966C135.198 1070.08 198.049 1137 275.5 1137L275.5 1114ZM47 620H70C70 486.146 95.143 366.083 134.801 280.345C175.355 192.671 226.754 149 275.5 149L275.5 126L275.5 103C198.049 103 135.198 169.916 93.0512 261.034C50.0086 354.089 24 481.026 24 620H47Z" fill="white" mask="url(#path-1-inside-1_125_88)"/>
</g>
<g filter="url(#filter1_g_125_88)">
<mask id="path-3-inside-2_125_88" fill="white">
<path d="M70.6654 10.8789C63.095 16.8872 61.8285 27.895 67.8367 35.4655L106.651 84.3716L45.6123 76.3155C36.0834 75.0578 27.3394 81.7631 26.0817 91.2921C24.824 100.821 31.5287 109.565 41.0576 110.823L137.774 123.588L173.518 168.625C179.526 176.196 190.534 177.462 198.104 171.454C205.675 165.446 206.941 154.438 200.933 146.867L95.252 13.7076C89.2437 6.13711 78.2359 4.87066 70.6654 10.8789Z"/>
</mask>
<path d="M70.6654 10.8789L56.3673 -7.13673L56.3674 -7.13682L70.6654 10.8789ZM67.8367 35.4655L49.821 49.7635L67.8367 35.4655ZM106.651 84.3716L124.666 70.0736L160.016 114.614L103.641 107.174L106.651 84.3716ZM45.6123 76.3155L42.6027 99.1177L42.6027 99.1177L45.6123 76.3155ZM26.0817 91.2921L3.27948 88.2825L3.27949 88.2824L26.0817 91.2921ZM41.0576 110.823L38.048 133.625L38.0477 133.625L41.0576 110.823ZM137.774 123.588L140.784 100.786L150.007 102.003L155.79 109.29L137.774 123.588ZM173.518 168.625L191.533 154.327L173.518 168.625ZM198.104 171.454L212.402 189.47L212.402 189.47L198.104 171.454ZM200.933 146.867L218.949 132.569L200.933 146.867ZM95.252 13.7076L113.268 -0.590381L95.252 13.7076ZM70.6654 10.8789L84.9635 28.8946C87.3427 27.0064 87.7409 23.5469 85.8525 21.1675L67.8367 35.4655L49.821 49.7635C35.9161 32.2431 38.8473 6.76802 56.3673 -7.13673L70.6654 10.8789ZM67.8367 35.4655L85.8525 21.1675L124.666 70.0736L106.651 84.3716L88.6348 98.6696L49.821 49.7635L67.8367 35.4655ZM106.651 84.3716L103.641 107.174L42.6027 99.1177L45.6123 76.3155L48.6218 53.5132L109.66 61.5693L106.651 84.3716ZM45.6123 76.3155L42.6027 99.1177C45.668 99.5223 48.4796 97.3652 48.884 94.3017L26.0817 91.2921L3.27949 88.2824C6.19924 66.1611 26.4987 50.5933 48.6219 53.5132L45.6123 76.3155ZM26.0817 91.2921L48.884 94.3016C49.2883 91.2384 47.1329 88.4257 44.0674 88.021L41.0576 110.823L38.0477 133.625C15.9245 130.705 0.359825 110.403 3.27948 88.2825L26.0817 91.2921ZM41.0576 110.823L44.0671 88.021L140.784 100.786L137.774 123.588L134.765 146.39L38.048 133.625L41.0576 110.823ZM137.774 123.588L155.79 109.29L191.533 154.327L173.518 168.625L155.502 182.923L119.759 137.886L137.774 123.588ZM173.518 168.625L191.533 154.327C189.645 151.948 186.185 151.55 183.806 153.438L198.104 171.454L212.402 189.47C194.882 203.374 169.407 200.444 155.502 182.923L173.518 168.625ZM198.104 171.454L183.806 153.438C181.427 155.327 181.029 158.786 182.917 161.165L200.933 146.867L218.949 132.569C232.853 150.09 229.923 175.565 212.402 189.47L198.104 171.454ZM200.933 146.867L182.917 161.165L77.2362 28.0056L95.252 13.7076L113.268 -0.590381L218.949 132.569L200.933 146.867ZM95.252 13.7076L77.2362 28.0056C79.1245 30.3849 82.5841 30.783 84.9634 28.8947L70.6654 10.8789L56.3674 -7.13682C73.8877 -21.0417 99.3629 -18.1107 113.268 -0.590381L95.252 13.7076Z" fill="white" mask="url(#path-3-inside-2_125_88)"/>
</g>
<g filter="url(#filter2_g_125_88)">
<mask id="path-5-inside-3_125_88" fill="white">
<path d="M481.147 10.8789C488.717 16.8872 489.984 27.895 483.975 35.4655L445.161 84.3716L506.2 76.3155C515.729 75.0578 524.473 81.7631 525.73 91.2921C526.988 100.821 520.283 109.565 510.754 110.823L414.038 123.588L378.294 168.625C372.286 176.196 361.278 177.462 353.708 171.454C346.137 165.446 344.871 154.438 350.879 146.867L456.56 13.7076C462.568 6.13711 473.576 4.87066 481.147 10.8789Z"/>
</mask>
<path d="M481.147 10.8789L495.445 -7.13673L495.445 -7.13682L481.147 10.8789ZM483.975 35.4655L501.991 49.7635L483.975 35.4655ZM445.161 84.3716L427.146 70.0736L391.796 114.614L448.171 107.174L445.161 84.3716ZM506.2 76.3155L509.209 99.1177L509.209 99.1177L506.2 76.3155ZM525.73 91.2921L548.533 88.2825L548.533 88.2824L525.73 91.2921ZM510.754 110.823L513.764 133.625L513.764 133.625L510.754 110.823ZM414.038 123.588L411.028 100.786L401.805 102.003L396.022 109.29L414.038 123.588ZM353.708 171.454L339.41 189.47L339.41 189.47L353.708 171.454ZM350.879 146.867L332.863 132.569L350.879 146.867ZM456.56 13.7076L474.576 28.0056L456.56 13.7076ZM481.147 10.8789L466.848 28.8946C464.469 27.0064 464.071 23.5469 465.96 21.1675L483.975 35.4655L501.991 49.7635C515.896 32.2431 512.965 6.76802 495.445 -7.13673L481.147 10.8789ZM483.975 35.4655L465.96 21.1675L427.146 70.0736L445.161 84.3716L463.177 98.6696L501.991 49.7635L483.975 35.4655ZM445.161 84.3716L448.171 107.174L509.209 99.1177L506.2 76.3155L503.19 53.5132L442.152 61.5693L445.161 84.3716ZM506.2 76.3155L509.209 99.1177C506.144 99.5223 503.332 97.3652 502.928 94.3017L525.73 91.2921L548.533 88.2824C545.613 66.1611 525.313 50.5933 503.19 53.5132L506.2 76.3155ZM525.73 91.2921L502.928 94.3016C502.524 91.2384 504.679 88.4257 507.745 88.021L510.754 110.823L513.764 133.625C535.887 130.705 551.452 110.403 548.533 88.2825L525.73 91.2921ZM510.754 110.823L507.745 88.021L411.028 100.786L414.038 123.588L417.047 146.39L513.764 133.625L510.754 110.823ZM414.038 123.588L396.022 109.29L360.279 154.327L378.294 168.625L396.31 182.923L432.053 137.886L414.038 123.588ZM378.294 168.625L360.279 154.327C362.167 151.948 365.627 151.55 368.006 153.438L353.708 171.454L339.41 189.47C356.93 203.374 382.405 200.444 396.31 182.923L378.294 168.625ZM353.708 171.454L368.006 153.438C370.385 155.327 370.783 158.786 368.895 161.165L350.879 146.867L332.863 132.569C318.959 150.09 321.889 175.565 339.41 189.47L353.708 171.454ZM350.879 146.867L368.895 161.165L474.576 28.0056L456.56 13.7076L438.544 -0.590381L332.863 132.569L350.879 146.867ZM456.56 13.7076L474.576 28.0056C472.687 30.3849 469.228 30.783 466.849 28.8947L481.147 10.8789L495.445 -7.13682C477.924 -21.0417 452.449 -18.1107 438.544 -0.590381L456.56 13.7076Z" fill="white" mask="url(#path-5-inside-3_125_88)"/>
</g>
<ellipse cx="276" cy="337.5" rx="21" ry="15.5" fill="black"/>
<g filter="url(#filter3_g_125_88)">
<ellipse cx="134" cy="703.5" rx="53" ry="61.5" fill="#4E2308"/>
</g>
<g filter="url(#filter4_g_125_88)">
<ellipse cx="383" cy="859.5" rx="53" ry="61.5" fill="#4E2308"/>
</g>
<g filter="url(#filter5_g_125_88)">
<ellipse cx="393" cy="595.5" rx="53" ry="61.5" fill="#4E2308"/>
</g>
<defs>
<filter id="filter0_g_125_88" x="43" y="122" width="465" height="996" filterUnits="userSpaceOnUse" color-interpolation-filters="sRGB">
<feFlood flood-opacity="0" result="BackgroundImageFix"/>
<feBlend mode="normal" in="SourceGraphic" in2="BackgroundImageFix" result="shape"/>
<feTurbulence type="fractalNoise" baseFrequency="0.018484288826584816 0.018484288826584816" numOctaves="3" seed="159" />
<feDisplacementMap in="shape" scale="8" xChannelSelector="R" yChannelSelector="G" result="displacedImage" width="100%" height="100%" />
<feMerge result="effect1_texture_125_88">
<feMergeNode in="displacedImage"/>
</feMerge>
</filter>
<filter id="filter1_g_125_88" x="21.9302" y="3.08594" width="186.796" height="176.161" filterUnits="userSpaceOnUse" color-interpolation-filters="sRGB">
<feFlood flood-opacity="0" result="BackgroundImageFix"/>
<feBlend mode="normal" in="SourceGraphic" in2="BackgroundImageFix" result="shape"/>
<feTurbulence type="fractalNoise" baseFrequency="0.018484288826584816 0.018484288826584816" numOctaves="3" seed="159" />
<feDisplacementMap in="shape" scale="8" xChannelSelector="R" yChannelSelector="G" result="displacedImage" width="100%" height="100%" />
<feMerge result="effect1_texture_125_88">
<feMergeNode in="displacedImage"/>
</feMerge>
</filter>
<filter id="filter2_g_125_88" x="343.086" y="3.08594" width="186.796" height="176.161" filterUnits="userSpaceOnUse" color-interpolation-filters="sRGB">
<feFlood flood-opacity="0" result="BackgroundImageFix"/>
<feBlend mode="normal" in="SourceGraphic" in2="BackgroundImageFix" result="shape"/>
<feTurbulence type="fractalNoise" baseFrequency="0.018484288826584816 0.018484288826584816" numOctaves="3" seed="159" />
<feDisplacementMap in="shape" scale="8" xChannelSelector="R" yChannelSelector="G" result="displacedImage" width="100%" height="100%" />
<feMerge result="effect1_texture_125_88">
<feMergeNode in="displacedImage"/>
</feMerge>
</filter>
<filter id="filter3_g_125_88" x="77" y="638" width="114" height="131" filterUnits="userSpaceOnUse" color-interpolation-filters="sRGB">
<feFlood flood-opacity="0" result="BackgroundImageFix"/>
<feBlend mode="normal" in="SourceGraphic" in2="BackgroundImageFix" result="shape"/>
<feTurbulence type="fractalNoise" baseFrequency="0.023923445492982864 0.023923445492982864" numOctaves="3" seed="6744" />
<feDisplacementMap in="shape" scale="8" xChannelSelector="R" yChannelSelector="G" result="displacedImage" width="100%" height="100%" />
<feMerge result="effect1_texture_125_88">
<feMergeNode in="displacedImage"/>
</feMerge>
</filter>
<filter id="filter4_g_125_88" x="326" y="794" width="114" height="131" filterUnits="userSpaceOnUse" color-interpolation-filters="sRGB">
<feFlood flood-opacity="0" result="BackgroundImageFix"/>
<feBlend mode="normal" in="SourceGraphic" in2="BackgroundImageFix" result="shape"/>
<feTurbulence type="fractalNoise" baseFrequency="0.023923445492982864 0.023923445492982864" numOctaves="3" seed="6744" />
<feDisplacementMap in="shape" scale="8" xChannelSelector="R" yChannelSelector="G" result="displacedImage" width="100%" height="100%" />
<feMerge result="effect1_texture_125_88">
<feMergeNode in="displacedImage"/>
</feMerge>
</filter>
<filter id="filter5_g_125_88" x="336" y="530" width="114" height="131" filterUnits="userSpaceOnUse" color-interpolation-filters="sRGB">
<feFlood flood-opacity="0" result="BackgroundImageFix"/>
<feBlend mode="normal" in="SourceGraphic" in2="BackgroundImageFix" result="shape"/>
<feTurbulence type="fractalNoise" baseFrequency="0.023923445492982864 0.023923445492982864" numOctaves="3" seed="6744" />
<feDisplacementMap in="shape" scale="8" xChannelSelector="R" yChannelSelector="G" result="displacedImage" width="100%" height="100%" />
<feMerge result="effect1_texture_125_88">
<feMergeNode in="displacedImage"/>
</feMerge>
</filter>
</defs>
</svg>
