<svg width="647" height="696" viewBox="0 0 647 696" fill="none" xmlns="http://www.w3.org/2000/svg">
<g filter="url(#filter0_g_123_19)">
<mask id="path-1-inside-1_123_19" fill="white">
<path d="M580.086 5.02587C591.131 0.909331 602.685 9.74477 601.606 21.4829L586.142 189.705C621.99 241.344 643 304.061 643 371.686C643 548.141 499.955 691.186 323.5 691.186C147.045 691.186 4 548.141 4 371.686C4.00008 303.681 25.2481 240.638 61.4658 188.833L44.2021 24.8579C42.9486 12.951 54.7378 3.93582 65.9004 8.26513L221.778 68.7212C253.73 57.9976 287.936 52.1861 323.5 52.186C355.881 52.186 387.137 57.0037 416.591 65.9604L580.086 5.02587Z"/>
</mask>
<path d="M580.086 5.02587L572.054 -16.526L572.054 -16.526L580.086 5.02587ZM601.606 21.4829L624.51 23.5884L624.51 23.5877L601.606 21.4829ZM586.142 189.705L563.238 187.599L562.471 195.94L567.248 202.821L586.142 189.705ZM643 371.686H666V371.686L643 371.686ZM323.5 691.186L323.5 714.186H323.5V691.186ZM4 371.686L-19 371.686V371.686H4ZM61.4658 188.833L80.3159 202.012L85.239 194.97L84.3394 186.425L61.4658 188.833ZM44.2021 24.8579L21.3286 27.266L21.3286 27.2661L44.2021 24.8579ZM65.9004 8.26513L74.2172 -13.1786L74.2171 -13.1786L65.9004 8.26513ZM221.778 68.7212L213.462 90.1649L221.214 93.1715L229.096 90.5259L221.778 68.7212ZM323.5 52.186V29.186H323.5L323.5 52.186ZM416.591 65.9604L409.899 87.9655L417.338 90.2275L424.623 87.5123L416.591 65.9604ZM580.086 5.02587L588.118 26.5778C583.285 28.3789 578.231 24.5132 578.703 19.3781L601.606 21.4829L624.51 23.5877C627.139 -5.02367 598.977 -26.5602 572.054 -16.526L580.086 5.02587ZM601.606 21.4829L578.703 19.3774L563.238 187.599L586.142 189.705L609.045 191.81L624.51 23.5884L601.606 21.4829ZM586.142 189.705L567.248 202.821C600.509 250.733 620 308.899 620 371.686L643 371.686L666 371.686C666 299.224 643.471 231.955 605.035 176.589L586.142 189.705ZM643 371.686H620C620 535.438 487.252 668.186 323.5 668.186V691.186V714.186C512.658 714.186 666 560.844 666 371.686H643ZM323.5 691.186L323.5 668.186C159.748 668.186 27 535.438 27 371.686H4H-19C-19 560.843 134.343 714.186 323.5 714.186L323.5 691.186ZM4 371.686L27 371.686C27.0001 308.546 46.7116 250.079 80.3159 202.012L61.4658 188.833L42.6157 175.655C3.78473 231.198 -18.9999 298.815 -19 371.686L4 371.686ZM61.4658 188.833L84.3394 186.425L67.0757 22.4497L44.2021 24.8579L21.3286 27.2661L38.5922 191.242L61.4658 188.833ZM44.2021 24.8579L67.0757 22.4498C67.6242 27.6597 62.4667 31.6027 57.5837 29.7088L65.9004 8.26513L74.2171 -13.1786C47.0089 -23.731 18.2729 -1.7577 21.3286 27.266L44.2021 24.8579ZM65.9004 8.26513L57.5836 29.7088L213.462 90.1649L221.778 68.7212L230.095 47.2775L74.2172 -13.1786L65.9004 8.26513ZM221.778 68.7212L229.096 90.5259C258.72 80.5836 290.457 75.1861 323.5 75.186L323.5 52.186L323.5 29.186C285.416 29.1861 248.74 35.4116 214.46 46.9165L221.778 68.7212ZM323.5 52.186V75.186C353.589 75.186 382.591 79.6611 409.899 87.9655L416.591 65.9604L423.283 43.9554C391.684 34.3463 358.174 29.186 323.5 29.186V52.186ZM416.591 65.9604L424.623 87.5123L588.118 26.5777L580.086 5.02587L572.054 -16.526L408.558 44.4086L416.591 65.9604Z" fill="white" mask="url(#path-1-inside-1_123_19)"/>
</g>
<defs>
<filter id="filter0_g_123_19" x="0" y="0" width="647" height="695.187" filterUnits="userSpaceOnUse" color-interpolation-filters="sRGB">
<feFlood flood-opacity="0" result="BackgroundImageFix"/>
<feBlend mode="normal" in="SourceGraphic" in2="BackgroundImageFix" result="shape"/>
<feTurbulence type="fractalNoise" baseFrequency="0.018484288826584816 0.018484288826584816" numOctaves="3" seed="159" />
<feDisplacementMap in="shape" scale="8" xChannelSelector="R" yChannelSelector="G" result="displacedImage" width="100%" height="100%" />
<feMerge result="effect1_texture_123_19">
<feMergeNode in="displacedImage"/>
</feMerge>
</filter>
</defs>
</svg>
