<svg width="647" height="647" viewBox="0 0 647 647" fill="none" xmlns="http://www.w3.org/2000/svg">
<g filter="url(#filter0_g_121_160)">
<mask id="path-1-inside-1_121_160" fill="white">
<path d="M323.5 4C499.955 4 643 147.045 643 323.5C643 499.955 499.955 643 323.5 643C147.045 643 4 499.955 4 323.5C4.00004 147.045 147.045 4.0002 323.5 4Z"/>
</mask>
<path d="M323.5 4V-19H323.5L323.5 4ZM643 323.5H666V323.5H643ZM323.5 643L323.5 666H323.5V643ZM4 323.5H-19V323.5H4ZM323.5 4V27C487.252 27 620 159.748 620 323.5H643H666C666 134.343 512.658 -19 323.5 -19V4ZM643 323.5H620C620 487.252 487.252 620 323.5 620V643V666C512.658 666 666 512.658 666 323.5H643ZM323.5 643L323.5 620C159.748 620 27 487.252 27 323.5H4H-19C-19 512.657 134.343 666 323.5 666L323.5 643ZM4 323.5H27C27 159.748 159.748 27.0002 323.5 27L323.5 4L323.5 -19C134.343 -18.9998 -19 134.343 -19 323.5H4Z" fill="white" mask="url(#path-1-inside-1_121_160)"/>
</g>
<defs>
<filter id="filter0_g_121_160" x="0" y="0" width="647" height="647" filterUnits="userSpaceOnUse" color-interpolation-filters="sRGB">
<feFlood flood-opacity="0" result="BackgroundImageFix"/>
<feBlend mode="normal" in="SourceGraphic" in2="BackgroundImageFix" result="shape"/>
<feTurbulence type="fractalNoise" baseFrequency="0.018484288826584816 0.018484288826584816" numOctaves="3" seed="159" />
<feDisplacementMap in="shape" scale="8" xChannelSelector="R" yChannelSelector="G" result="displacedImage" width="100%" height="100%" />
<feMerge result="effect1_texture_121_160">
<feMergeNode in="displacedImage"/>
</feMerge>
</filter>
</defs>
</svg>
