<svg width="281" height="260" viewBox="0 0 281 260" fill="none" xmlns="http://www.w3.org/2000/svg">
<g filter="url(#filter0_g_121_164)">
<path d="M184.837 245.429C210.535 244.993 236.589 238.138 247.217 233.79C258.217 229.29 261.352 215.293 264.558 201.814C268.337 185.929 267.374 164.716 264.558 153.929C261.807 143.39 253.784 126.072 247.217 116.429C240.034 105.88 191.699 83.0294 177.779 70.9633C169.728 63.9849 157.454 58.5602 144.313 53.6298C133.937 49.7365 120.455 44.5136 109.892 40.9879C98.0603 37.0388 89.5245 30.4671 73.8626 22.5097C68.2238 19.6447 64.6901 16.4064 60.722 14.0677C56.715 11.706 51.1211 13.569 45.7483 16.6031C40.4996 19.5671 37.0605 24.3287 34.7218 28.9992C32.5371 33.3619 32.8325 41.1565 33.7596 50.0409C35.0073 61.9988 53.3686 67.8309 64.8657 74.6716C67.1764 76.0465 69.775 75.388 68.8831 75.388C57.1941 75.388 47.8623 78.6468 37.0886 82.3972C26.1508 86.2048 19.2776 90.3617 15.7659 95.4746C9.16255 105.089 15.9626 116.573 19.6919 121.004C29.6445 132.831 43.536 134.833 55.0331 138.584C64.6933 141.735 73.989 143.739 83.3861 144.216C95.9782 144.856 47.5252 142.812 33.0924 147.236C28.6611 148.595 27.2279 154.498 25.1209 159.162C19.712 171.133 31.3997 181.636 38.6548 188.442C46.0031 195.335 58.5377 195.233 69.3115 198.984C80.3816 202.838 91.772 204.139 102.792 206.014C107.718 206.853 112.87 207.889 116.157 209.287C118.63 210.339 110.58 215.362 107.069 220.033C105.483 222.142 105.875 224.703 106.57 226.824C107.968 231.09 112.406 235.027 117.077 238.771C124.719 244.896 135.794 244.396 146.336 245.815C156.414 248.161 159.138 245.864 184.837 245.429Z" stroke="white" stroke-width="18" stroke-linecap="round"/>
</g>
<defs>
<filter id="filter0_g_121_164" x="0" y="0" width="280.044" height="259.854" filterUnits="userSpaceOnUse" color-interpolation-filters="sRGB">
<feFlood flood-opacity="0" result="BackgroundImageFix"/>
<feBlend mode="normal" in="SourceGraphic" in2="BackgroundImageFix" result="shape"/>
<feTurbulence type="fractalNoise" baseFrequency="0.018484288826584816 0.018484288826584816" numOctaves="3" seed="159" />
<feDisplacementMap in="shape" scale="8" xChannelSelector="R" yChannelSelector="G" result="displacedImage" width="100%" height="100%" />
<feMerge result="effect1_texture_121_164">
<feMergeNode in="displacedImage"/>
</feMerge>
</filter>
</defs>
</svg>
