<svg width="281" height="260" viewBox="0 0 281 260" fill="none" xmlns="http://www.w3.org/2000/svg">
<g filter="url(#filter0_g_121_164)">
<path d="M247.217 233.79C236.589 238.138 210.535 244.993 184.837 245.429C159.139 245.864 156.415 248.161 146.336 245.815C135.794 244.396 124.719 244.896 117.077 238.771C112.407 235.027 107.969 231.09 106.57 226.824C105.875 224.703 105.483 222.142 107.069 220.033C110.581 215.362 118.63 210.339 116.157 209.287C112.87 207.889 107.718 206.853 102.792 206.014C91.7723 204.139 80.3818 202.838 69.3118 198.984C58.538 195.233 46.0033 195.335 38.6551 188.442C31.4 181.636 19.7123 171.133 25.1212 159.162C27.2281 154.498 28.6614 148.595 33.0926 147.236C47.5255 142.812 95.9784 144.856 83.3864 144.216C73.9893 143.739 64.6936 141.735 55.0334 138.584C43.5362 134.833 29.6448 132.831 19.6922 121.004C15.9628 116.573 9.16279 105.089 15.7662 95.4746C19.2778 90.3617 26.151 86.2048 37.0888 82.3972L37.1705 82.3688C47.281 78.8492 56.1284 75.7694 66.8588 75.4208C66.2319 75.2986 65.5368 75.0708 64.866 74.6716C53.3689 67.8309 35.0076 61.9988 33.7598 50.0409C32.8327 41.1565 32.5374 33.3619 34.722 28.9992C37.0608 24.3287 40.4999 19.5671 45.7486 16.6031C51.1214 13.569 56.7153 11.706 60.7222 14.0677C64.6904 16.4064 68.224 19.6447 73.8628 22.5097C89.5247 30.4671 98.0606 37.0388 109.892 40.9879C120.455 44.5136 133.937 49.7365 144.313 53.6298C157.454 58.5602 169.729 63.9849 177.779 70.9633C191.7 83.0294 240.034 105.88 247.217 116.429C253.784 126.072 261.807 143.39 264.558 153.929C267.375 164.716 268.337 185.929 264.558 201.814C261.352 215.293 258.217 229.29 247.217 233.79Z" fill="#806714"/>
<path d="M184.837 245.429C210.535 244.993 236.589 238.138 247.217 233.79C258.217 229.29 261.352 215.293 264.558 201.814C268.337 185.929 267.375 164.716 264.558 153.929C261.807 143.39 253.784 126.072 247.217 116.429C240.034 105.88 191.7 83.0294 177.779 70.9633C169.729 63.9849 157.454 58.5602 144.313 53.6298C133.937 49.7365 120.455 44.5136 109.892 40.9879C98.0606 37.0388 89.5247 30.4671 73.8628 22.5097C68.224 19.6447 64.6904 16.4064 60.7222 14.0677C56.7153 11.706 51.1214 13.569 45.7486 16.6031C40.4999 19.5671 37.0608 24.3287 34.722 28.9992C32.5374 33.3619 32.8327 41.1565 33.7598 50.0409C35.0076 61.9988 53.3689 67.8309 64.866 74.6716C67.1767 76.0465 69.7753 75.388 68.8833 75.388C57.1944 75.388 47.8626 78.6468 37.0888 82.3972C26.151 86.2048 19.2778 90.3617 15.7662 95.4746C9.16279 105.089 15.9628 116.573 19.6922 121.004C29.6448 132.831 43.5362 134.833 55.0334 138.584C64.6936 141.735 73.9893 143.739 83.3864 144.216C95.9784 144.856 47.5255 142.812 33.0926 147.236C28.6614 148.595 27.2281 154.498 25.1212 159.162C19.7123 171.133 31.4 181.636 38.6551 188.442C46.0033 195.335 58.538 195.233 69.3118 198.984C80.3818 202.838 91.7723 204.139 102.792 206.014C107.718 206.853 112.87 207.889 116.157 209.287C118.63 210.339 110.581 215.362 107.069 220.033C105.483 222.142 105.875 224.703 106.57 226.824C107.969 231.09 112.407 235.027 117.077 238.771C124.719 244.896 135.794 244.396 146.336 245.815C156.415 248.161 159.139 245.864 184.837 245.429Z" stroke="white" stroke-width="18" stroke-linecap="round"/>
</g>
<defs>
<filter id="filter0_g_121_164" x="0" y="0" width="280.044" height="259.854" filterUnits="userSpaceOnUse" color-interpolation-filters="sRGB">
<feFlood flood-opacity="0" result="BackgroundImageFix"/>
<feBlend mode="normal" in="SourceGraphic" in2="BackgroundImageFix" result="shape"/>
<feTurbulence type="fractalNoise" baseFrequency="0.018484288826584816 0.018484288826584816" numOctaves="3" seed="159" />
<feDisplacementMap in="shape" scale="8" xChannelSelector="R" yChannelSelector="G" result="displacedImage" width="100%" height="100%" />
<feMerge result="effect1_texture_121_164">
<feMergeNode in="displacedImage"/>
</feMerge>
</filter>
</defs>
</svg>
