<svg width="330" height="329" viewBox="0 0 330 329" fill="none" xmlns="http://www.w3.org/2000/svg">
<g filter="url(#filter0_g_123_38)">
<mask id="path-1-inside-1_123_38" fill="white">
<path d="M167.5 64C236.259 64 292 119.741 292 188.5C292 257.259 236.259 313 167.5 313C98.7406 313 43 257.259 43 188.5C43 119.741 98.7406 64.0001 167.5 64Z"/>
</mask>
<path d="M167.5 64C236.259 64 292 119.741 292 188.5C292 257.259 236.259 313 167.5 313C98.7406 313 43 257.259 43 188.5C43 119.741 98.7406 64.0001 167.5 64Z" fill="black"/>
<path d="M167.5 64V41H167.5L167.5 64ZM167.5 313L167.5 336H167.5V313ZM167.5 64V87C223.557 87 269 132.443 269 188.5H292H315C315 107.038 248.962 41 167.5 41V64ZM292 188.5H269C269 244.557 223.557 290 167.5 290V313V336C248.962 336 315 269.962 315 188.5H292ZM167.5 313L167.5 290C111.443 290 66 244.557 66 188.5H43H20C20 269.962 86.0381 336 167.5 336L167.5 313ZM43 188.5H66C66 132.443 111.443 87.0001 167.5 87L167.5 64L167.5 41C86.0381 41.0001 20 107.038 20 188.5H43Z" fill="white" mask="url(#path-1-inside-1_123_38)"/>
</g>
<line x1="105.728" y1="145.63" x2="148.37" y2="188.272" stroke="white" stroke-width="18" stroke-linecap="round"/>
<line x1="200.728" y1="145.63" x2="243.37" y2="188.272" stroke="white" stroke-width="18" stroke-linecap="round"/>
<line x1="148.371" y1="148.728" x2="105.728" y2="191.37" stroke="white" stroke-width="18" stroke-linecap="round"/>
<line x1="243.371" y1="148.728" x2="200.728" y2="191.37" stroke="white" stroke-width="18" stroke-linecap="round"/>
<path d="M169.5 105.5V198.5L224.5 251" stroke="white" stroke-width="14"/>
<line x1="65.7782" y1="63.2218" x2="100.778" y2="98.2218" stroke="white" stroke-width="22"/>
<line x1="228.778" y1="286.222" x2="263.778" y2="321.222" stroke="white" stroke-width="22"/>
<line x1="265.275" y1="55.5" x2="240.526" y2="98.3661" stroke="white" stroke-width="22"/>
<line x1="80.2748" y1="265.5" x2="55.5261" y2="308.366" stroke="white" stroke-width="22"/>
<mask id="path-12-inside-2_123_38" fill="white">
<path d="M102.884 39.2445C97.7304 34.0908 91.8042 29.8107 85.4437 26.6484C79.0833 23.4862 72.4132 21.5037 65.8142 20.8143C59.2153 20.1248 52.8168 20.7419 46.984 22.6302C41.1512 24.5186 35.9984 27.6412 31.8198 31.8198C27.6412 35.9985 24.5185 41.1513 22.6302 46.9841C20.7419 52.8168 20.1248 59.2153 20.8142 65.8143C21.5037 72.4132 23.4861 79.0833 26.6484 85.4437C29.8106 91.8042 34.0908 97.7304 39.2444 102.884L71.0642 71.0643L102.884 39.2445Z"/>
</mask>
<path d="M102.884 39.2445C97.7304 34.0908 91.8042 29.8107 85.4437 26.6484C79.0833 23.4862 72.4132 21.5037 65.8142 20.8143C59.2153 20.1248 52.8168 20.7419 46.984 22.6302C41.1512 24.5186 35.9984 27.6412 31.8198 31.8198C27.6412 35.9985 24.5185 41.1513 22.6302 46.9841C20.7419 52.8168 20.1248 59.2153 20.8142 65.8143C21.5037 72.4132 23.4861 79.0833 26.6484 85.4437C29.8106 91.8042 34.0908 97.7304 39.2444 102.884L71.0642 71.0643L102.884 39.2445Z" fill="black" stroke="white" stroke-width="32" mask="url(#path-12-inside-2_123_38)"/>
<mask id="path-13-inside-3_123_38" fill="white">
<path d="M224.26 48.2774C227.951 41.9925 232.609 36.3586 237.969 31.6974C243.329 27.0361 249.285 23.4387 255.498 21.1106C261.711 18.7825 268.059 17.7694 274.179 18.1289C280.299 18.4885 286.072 20.2137 291.168 23.2061C296.264 26.1986 300.583 30.3996 303.879 35.5693C307.174 40.7391 309.382 46.7763 310.375 53.3364C311.369 59.8964 311.129 66.8507 309.669 73.8023C308.21 80.7539 305.559 87.5666 301.868 93.8514L263.064 71.0644L224.26 48.2774Z"/>
</mask>
<path d="M224.26 48.2774C227.951 41.9925 232.609 36.3586 237.969 31.6974C243.329 27.0361 249.285 23.4387 255.498 21.1106C261.711 18.7825 268.059 17.7694 274.179 18.1289C280.299 18.4885 286.072 20.2137 291.168 23.2061C296.264 26.1986 300.583 30.3996 303.879 35.5693C307.174 40.7391 309.382 46.7763 310.375 53.3364C311.369 59.8964 311.129 66.8507 309.669 73.8023C308.21 80.7539 305.559 87.5666 301.868 93.8514L263.064 71.0644L224.26 48.2774Z" fill="black" stroke="white" stroke-width="32" mask="url(#path-13-inside-3_123_38)"/>
<defs>
<filter id="filter0_g_123_38" x="39" y="60" width="257" height="257" filterUnits="userSpaceOnUse" color-interpolation-filters="sRGB">
<feFlood flood-opacity="0" result="BackgroundImageFix"/>
<feBlend mode="normal" in="SourceGraphic" in2="BackgroundImageFix" result="shape"/>
<feTurbulence type="fractalNoise" baseFrequency="0.018484288826584816 0.018484288826584816" numOctaves="3" seed="159" />
<feDisplacementMap in="shape" scale="8" xChannelSelector="R" yChannelSelector="G" result="displacedImage" width="100%" height="100%" />
<feMerge result="effect1_texture_123_38">
<feMergeNode in="displacedImage"/>
</feMerge>
</filter>
</defs>
</svg>
