<svg width="755" height="1023" viewBox="0 0 755 1023" fill="none" xmlns="http://www.w3.org/2000/svg">
<g filter="url(#filter0_d_128_422)">
<path d="M527.258 72.5889C546.002 23.5844 600.923 -0.946095 649.928 17.7979C698.932 36.542 723.464 91.4632 704.72 140.468L607.971 393.406C667.754 455.67 704.5 540.222 704.5 633.357C704.5 824.723 549.367 979.857 358 979.857C166.633 979.857 11.5 824.723 11.5 633.357C11.5 545.371 44.295 465.045 98.3271 403.935L28.0879 141.797C14.5086 91.1178 44.5836 39.0259 95.2627 25.4464C145.942 11.8669 198.034 41.9422 211.613 92.6212L266.901 298.957C295.93 291.068 326.473 286.857 358 286.857C386.765 286.857 414.71 290.363 441.434 296.969L527.258 72.5889Z" fill="black"/>
<path d="M527.258 72.5889L516.517 68.4805V68.4805L527.258 72.5889ZM649.928 17.7979L654.036 7.05684V7.05684L649.928 17.7979ZM704.72 140.468L715.461 144.576V144.576L704.72 140.468ZM607.971 393.406L597.23 389.298L594.624 396.11L599.675 401.371L607.971 393.406ZM704.5 633.357H716V633.357H704.5ZM11.5 633.357H0V633.357H11.5ZM98.3271 403.935L106.942 411.552L111.034 406.925L109.435 400.958L98.3271 403.935ZM28.0879 141.797L16.9797 144.773L16.9797 144.773L28.0879 141.797ZM95.2627 25.4464L92.2863 14.3382L92.2862 14.3382L95.2627 25.4464ZM211.613 92.6212L222.721 89.6447L222.721 89.6447L211.613 92.6212ZM266.901 298.957L255.793 301.934L258.78 313.081L269.917 310.055L266.901 298.957ZM441.434 296.969L438.674 308.133L448.543 310.572L452.175 301.077L441.434 296.969ZM527.258 72.5889L537.999 76.6974C554.474 33.6251 602.747 12.064 645.819 28.539L649.928 17.7979L654.036 7.05684C599.1 -13.9562 537.53 13.5438 516.517 68.4805L527.258 72.5889ZM649.928 17.7979L645.819 28.539C688.892 45.0141 710.454 93.287 693.979 136.359L704.72 140.468L715.461 144.576C736.474 89.6395 708.973 28.0699 654.036 7.05684L649.928 17.7979ZM704.72 140.468L693.979 136.359L597.23 389.298L607.971 393.406L618.712 397.515L715.461 144.576L704.72 140.468ZM607.971 393.406L599.675 401.371C657.485 461.58 693 543.308 693 633.357H704.5H716C716 537.135 678.023 449.761 616.266 385.442L607.971 393.406ZM704.5 633.357H693C693 818.372 543.015 968.357 358 968.357V979.857V991.357C555.718 991.357 716 831.074 716 633.357H704.5ZM358 979.857V968.357C172.985 968.357 23 818.372 23 633.357H11.5H0C0 831.074 160.282 991.357 358 991.357V979.857ZM11.5 633.357H23C23 548.283 54.6973 470.641 106.942 411.552L98.3271 403.935L89.7118 396.317C33.8926 459.449 2.38419e-05 542.458 0 633.357H11.5ZM98.3271 403.935L109.435 400.958L39.196 138.821L28.0879 141.797L16.9797 144.773L87.219 406.911L98.3271 403.935ZM28.0879 141.797L39.196 138.821C27.2605 94.2762 53.695 48.4902 98.2391 36.5545L95.2627 25.4464L92.2862 14.3382C35.4723 29.5616 1.75663 87.9594 16.9797 144.773L28.0879 141.797ZM95.2627 25.4464L98.2391 36.5545C142.783 24.6189 188.569 51.0535 200.505 95.5976L211.613 92.6212L222.721 89.6447C207.498 32.8309 149.1 -0.885046 92.2863 14.3382L95.2627 25.4464ZM211.613 92.6212L200.505 95.5976L255.793 301.934L266.901 298.957L278.01 295.981L222.721 89.6447L211.613 92.6212ZM266.901 298.957L269.917 310.055C297.972 302.43 327.501 298.357 358 298.357V286.857V275.357C325.445 275.357 293.888 279.706 263.885 287.86L266.901 298.957ZM358 286.857V298.357C385.827 298.357 412.846 301.748 438.674 308.133L441.434 296.969L444.193 285.805C416.574 278.977 387.702 275.357 358 275.357V286.857ZM441.434 296.969L452.175 301.077L537.999 76.6974L527.258 72.5889L516.517 68.4805L430.693 292.86L441.434 296.969Z" fill="#FF0000"/>
</g>
<path d="M221.5 800.858L264.646 746.761C265.639 745.516 267.618 745.874 268.112 747.388L286.23 802.985C286.745 804.565 288.85 804.865 289.785 803.491L328.788 746.207C329.567 745.063 331.244 745.037 332.058 746.156L373.883 803.652C374.848 804.98 376.914 804.643 377.407 803.077L392.438 755.418C392.962 753.755 395.216 753.513 396.081 755.027L424.32 804.429C425.001 805.62 426.651 805.788 427.558 804.758L472.804 753.367C473.76 752.281 475.517 752.539 476.122 753.853L500.5 806.858" stroke="#FF0000" stroke-width="16"/>
<path d="M365.554 700.24C363.559 703.006 359.441 703.006 357.446 700.24L328.249 659.784C325.862 656.478 328.225 651.858 332.303 651.858L390.697 651.858C394.775 651.858 397.138 656.478 394.751 659.784L365.554 700.24Z" fill="#FF0000"/>
<defs>
<filter id="filter0_d_128_422" x="0" y="0" width="754.518" height="1022.36" filterUnits="userSpaceOnUse" color-interpolation-filters="sRGB">
<feFlood flood-opacity="0" result="BackgroundImageFix"/>
<feColorMatrix in="SourceAlpha" type="matrix" values="0 0 0 0 0 0 0 0 0 0 0 0 0 0 0 0 0 0 127 0" result="hardAlpha"/>
<feOffset dx="32" dy="31"/>
<feComposite in2="hardAlpha" operator="out"/>
<feColorMatrix type="matrix" values="0 0 0 0 0 0 0 0 0 0 0 0 0 0 0 0 0 0 1 0"/>
<feBlend mode="normal" in2="BackgroundImageFix" result="effect1_dropShadow_128_422"/>
<feBlend mode="normal" in="SourceGraphic" in2="effect1_dropShadow_128_422" result="shape"/>
</filter>
</defs>
</svg>
